<svg xmlns="http://www.w3.org/2000/svg" width="225" height="52" viewBox="0 0 225 52">
  <g xmlns="http://www.w3.org/2000/svg" transform="translate(0.000000,130.000000) scale(0.100000,-0.100000)" fill="#fff"
    stroke="none">
    <path
      d="M1136 1285 c-9 -9 -16 -19 -16 -23 0 -15 -42 -215 -70 -338 l-31 -130 -51 -22 c-28 -12 -53 -21 -54 -19 -2 1 5 39 15 82 39 167 41 179 25 196                                         -8 8 -14 20 -14 26 0 6 -6 13 -12 16 -10 3 -10 7 1 20 11 14 11 18 -4 23 -35                                         14 -49 -10 -72 -122 -66 -329 -76 -354 -145 -390 -16 -8 -28 -19 -28 -24 0                                         -16 19 -21 41 -10 18 10 20 9 15 -7 -34 -110 -45 -213 -30 -270 15 -55 91 -3                                         116 79 9 29 19 73 23 98 8 48 32 151 38 157 10 9 97 49 97 44 0 -3 -16 -69                                         -36 -146 -19 -77 -38 -172 -41 -211 -6 -75 3 -164 16 -164 13 0 30 46 21 60                                         -5 9 -1 20 13 31 12 10 18 18 13 19 -5 0 -3 7 4 15 7 8 10 22 6 30 -5 13 -2                                         14 15 4 22 -11 37 2 64 56 6 11 20 25 32 31 12 6 47 44 77 86 65 89 113 123                                         185 133 l54 7 -6 -33 c-4 -19 -10 -110 -13 -204 l-7 -170 -49 -60 c-26 -33                                         -48 -63 -48 -68 0 -12 42 12 76 45 l31 29 7 -40 c6 -39 26 -58 26 -25 0 8 4                                         13 9 9 6 -3 13 11 16 32 9 56 13 63 32 70 10 4 25 15 33 26 20 24 71 30 86 9                                         11 -15 14 -15 31 0 10 9 25 18 33 20 19 4 40 24 40 37 0 5 8 16 18 23 11 7 26                                         27 35 43 8 17 19 29 24 28 4 -2 8 3 8 10 1 6 6 11 13 10 7 -2 12 2 12 7 0 6 6                                         10 13 10 17 0 60 58 52 70 -5 9 10 15 18 8 1 -2 14 7 27 20 21 19 22 24 10 32                                         -10 7 -11 10 -2 10 6 0 12 5 12 10 0 6 -9 10 -20 10 -17 0 -18 3 -9 18 6 10                                         20 18 31 18 17 0 17 -2 4 -12 -15 -10 -15 -13 -1 -24 11 -9 12 -15 5 -20 -7                                         -5 -6 -11 5 -20 13 -10 15 -9 15 8 0 11 8 26 17 33 15 13 16 11 10 -11 -18                                         -66 -19 -137 -3 -172 22 -46 59 -80 88 -81 90 -2 134 7 169 35 20 15 43 28 50                                         28 13 1 60 57 87 107 7 12 18 23 24 23 5 0 8 6 5 14 -3 8 -3 17 1 20 3 4 7 16                                         9 28 2 12 9 31 17 43 7 11 18 37 25 58 7 20 17 37 22 37 5 0 2 -17 -6 -37 -9                                         -20 -18 -71 -21 -112 -3 -42 -9 -96 -14 -121 -5 -25 -12 -66 -15 -92 -5 -38                                         -10 -47 -28 -50 -18 -2 -22 -9 -20 -35 2 -25 0 -31 -12 -27 -8 4 -15 1 -15 -4                                         0 -6 9 -14 20 -17 11 -3 20 -14 20 -23 -1 -16 -2 -15 -11 1 -5 9 -15 17 -21                                         17 -6 0 1 -11 17 -25 17 -17 25 -33 22 -45 -3 -11 0 -18 6 -17 6 1 16 -9 24                                         -23 7 -14 13 -19 13 -12 0 6 9 12 19 12 11 0 31 15 44 33 32 41 109 204 158                                         332 32 85 38 95 39 65 1 -19 3 -62 4 -95 2 -33 4 -72 5 -87 1 -23 6 -28 27                                         -28 27 0 84 48 84 71 0 24 63 139 76 139 9 0 14 12 14 33 0 19 9 60 21 93 27                                         79 48 171 54 239 5 52 4 55 -18 55 -27 0 -67 -26 -67 -44 0 -15 -42 -56 -58                                         -56 -7 0 -12 -12 -12 -27 0 -16 -3 -39 -7 -52 -5 -21 -3 -23 18 -17 l24 7 -24                                         -19 c-16 -13 -22 -25 -18 -36 4 -10 3 -14 -3 -11 -5 3 -14 -4 -20 -15 -17 -32                                         -27 -24 -34 29 -11 86 -58 78 -115 -19 -23 -38 -41 -72 -41 -77 0 -4 -7 -16                                         -14 -26 -13 -16 -14 -14 -9 25 2 24 12 77 21 118 25 113 24 428 -1 493 -20 50                                         -37 64 -29 22 3 -17 0 -25 -10 -25 -17 0 -16 4 -22 -112 -2 -47 -10 -97 -17                                         -110 -7 -12 -12 -51 -12 -85 0 -35 -3 -63 -7 -63 -10 0 -8 -20 3 -37 5 -9 3                                         -11 -6 -7 -15 6 -33 137 -19 142 4 1 6 17 4 36 -3 24 -11 37 -30 46 -75 35                                         -73 35 -102 18 -28 -16 -29 -16 -67 21 -76 71 -262 93 -394 45 -107 -39 -259                                         -113 -259 -127 1 -29 19 -38 92 -43 58 -3 78 -1 87 10 7 8 19 12 26 10 7 -3                                         18 3 24 15 6 11 44 36 85 55 60 29 86 36 134 36 62 0 122 -15 122 -31 0 -24                                         -45 -93 -97 -150 -60 -65 -242 -223 -249 -216 -2 2 3 23 11 47 8 24 18 66 21                                         94 7 61 -7 79 -58 74 -28 -2 -36 -9 -51 -43 -51 -113 -46 -108 -127 -127 -102                                         -23 -160 -31 -160 -21 0 4 5 26 10 48 6 22 13 76 16 120 3 44 10 87 15 96 4 9                                         6 31 3 50 -2 19 -5 51 -5 71 -1 36 -3 37 -28 32 -37 -9 -41 -13 -41 -33 0 -10                                         -11 -26 -25 -35 -14 -9 -25 -22 -25 -29 0 -8 -12 -24 -26 -38 -14 -13 -71 -95                                         -127 -181 l-101 -158 -43 0 c-44 0 -52 7 -31 28 7 7 9 12 5 12 -3 0 0 17 7 38                                         7 20 12 45 10 55 -1 9 1 17 4 17 4 0 8 10 8 23 3 37 12 80 24 112 6 17 11 32                                         10 35 -2 12 25 90 32 90 4 0 8 5 8 11 0 6 7 27 17 46 13 27 13 37 4 43 -9 5                                         -10 9 -2 14 17 11 13 71 -6 94 -25 30 -66 37 -87 17z m1214 -270 c-7 -9 -15                                         -13 -17 -11 -7 7 7 26 19 26 6 0 6 -6 -2 -15z m130 -13 c0 -15 -2 -15 -10 -2                                         -13 20 -13 33 0 25 6 -3 10 -14 10 -23z m-40 -30 c-6 -2 -10 -34 -10 -71 0                                         -136 -29 -227 -115 -366 -52 -84 -97 -123 -147 -128 -30 -3 -38 1 -58 29 l-22                                         34 21 45 c11 25 21 52 21 61 0 9 16 39 35 65 19 27 35 54 35 60 0 6 7 17 15                                         25 8 9 15 24 15 35 0 11 5 17 10 14 6 -3 10 -2 10 3 0 5 10 20 23 33 67 70 94                                         131 65 142 -7 2 -1 8 14 12 15 4 35 18 44 33 l17 25 18 -24 c10 -13 14 -25 9                                         -27z m71 -203 c-5 -13 -10 -19 -10 -12 -1 15 10 45 15 40 3 -2 0 -15 -5 -28z                                         m-1106 -30 c-2 -28 -5 -53 -7 -54 -2 -2 -25 -6 -53 -9 -27 -3 -44 -3 -37 0 6                                         3 12 10 12 15 0 5 15 26 33 46 17 19 31 39 30 44 -2 5 3 9 11 9 11 0 14 -12                                         11 -51z m318 -56 c-28 -67 -95 -198 -111 -216 -8 -9 -12 -20 -9 -24 4 -3 -1                                         -12 -11 -20 -12 -10 -14 -16 -5 -19 10 -4 10 -13 -1 -39 -8 -19 -10 -37 -5                                         -42 5 -5 2 -18 -7 -31 -15 -22 -16 -22 -40 -3 -23 18 -64 18 -64 0 0 -5 -4 -9                                         -8 -9 -9 0 -1 67 22 185 8 44 15 90 16 103 0 13 5 28 10 35 6 7 16 20 23 31 8                                         10 27 19 44 20 18 1 35 5 39 9 4 4 13 7 20 7 7 0 30 11 50 25 50 34 56 32 37                                         -12z m286 -27 c-13 -29 -17 -30 -39 -16 -12 8 -10 10 9 10 13 0 22 3 18 6 -6                                         6 15 35 21 29 1 -1 -3 -14 -9 -29z m144 19 c-3 -9 -8 -14 -10 -11 -3 3 -2 9 2                                         15 9 16 15 13 8 -4z m-203 -19 c0 -2 -7 -7 -16 -10 -8 -3 -12 -2 -9 4 6 10 25                                         14 25 6z m852 -46 c3 -17 1 -33 -4 -36 -4 -3 -8 11 -8 30 0 44 6 47 12 6z                                         m-1691 -30 c16 0 10 -21 -30 -88 -21 -37 -47 -88 -56 -114 -10 -27 -22 -48                                         -27 -48 -11 0 -1 55 18 91 8 16 14 32 14 36 -1 5 9 40 22 79 19 60 25 69 36                                         58 7 -8 18 -14 23 -14z m799 -15 c0 -8 -7 -15 -15 -15 -13 0 -14 3 -3 15 16                                         18 18 18 18 0z m-40 -39 c-14 -14 -24 0 -16 21 6 15 8 15 16 3 6 -9 5 -19 0                                         -24z m219 -17 c-18 -11 -19 -8 -12 20 5 21 7 21 16 6 6 -12 5 -20 -4 -26z" />
    <path d="M1516 341 c-4 -7 -5 -15 -2 -18 9 -9 19 4 14 18 -4 11 -6 11 -12 0z" />
    <path
      d="M3922 1252 c-40 -62 -151 -329 -197 -476 -11 -32 -25 -60 -32 -63 -7 -3 -15 -14 -19 -25 -13 -44 -13 -7 2 83 25 148 27 207 8 226 -8 9 -13 24 -11                                         34 4 14 0 19 -17 19 -31 0 -63 -25 -71 -57 -17 -69 -59 -173 -70 -173 -8 0                                         -14 -24 -18 -67 -3 -38 -17 -102 -30 -143 -13 -42 -28 -98 -32 -125 -8 -47 -9                                         -48 -15 -20 -13 56 -48 110 -113 173 -92 88 -128 136 -134 180 -4 33 0 44 34                                         88 43 54 134 134 152 134 23 0 9 -64 -34 -152 -25 -51 -45 -100 -45 -110 0                                         -25 47 -35 79 -17 32 18 101 150 101 195 0 24 5 34 15 34 8 0 15 4 15 9 0 5                                         -7 11 -15 15 -8 3 -15 16 -15 28 -1 29 -25 59 -74 92 -63 42 -80 37 -183 -62                                         -164 -156 -186 -277 -74 -404 17 -20 31 -40 31 -45 0 -4 20 -31 45 -58 50 -54                                         75 -116 58 -143 -5 -10 -73 -57 -150 -107 -76 -49 -173 -117 -214 -150 -41                                         -33 -84 -67 -97 -75 -16 -11 -19 -19 -12 -30 8 -13 10 -12 10 4 0 14 5 17 21                                         13 12 -3 22 0 26 9 3 8 8 12 12 9 4 -2 24 10 44 26 25 21 43 28 56 24 13 -4                                         27 1 39 13 29 29 185 106 342 168 25 10 53 27 62 39 l17 20 1 -22 c0 -13 5                                         -23 10 -23 21 0 70 31 70 43 0 7 16 37 35 67 19 30 35 60 35 65 0 6 -5 3 -10                                         -5 -7 -11 -10 -6 -10 20 -1 31 -2 32 -10 13 -12 -29 -17 -29 -15 -1 1 12 12                                         26 24 32 14 6 20 15 16 25 -7 19 -8 21 -6 43 1 11 7 15 23 10 16 -4 19 -2 13                                         8 -10 17 -16 80 -9 103 11 35 20 15 32 -70 6 -49 13 -97 14 -108 4 -24 25 -29                                         61 -16 22 9 110 124 130 171 9 21 -3 -156 -14 -209 -6 -28 -6 -47 0 -55 13                                         -15 13 -349 0 -356 -5 -4 -1 -31 8 -63 17 -55 33 -75 33 -40 0 9 8 25 17 35                                         11 13 18 39 20 76 7 159 9 180 16 175 4 -2 7 3 7 12 0 11 -5 15 -16 11 -8 -3                                         -12 -2 -9 4 3 6 13 10 21 10 16 0 19 17 4 22 -7 2 -7 15 1 38 9 26 9 35 1 38                                         -7 2 -12 8 -12 13 0 6 4 8 9 5 5 -3 11 1 15 9 3 8 2 15 -2 15 -4 0 -8 9 -8 20                                         0 11 3 20 6 20 3 0 6 19 8 41 1 23 9 54 17 70 8 15 15 37 15 49 0 11 4 20 9                                         20 4 0 11 46 15 102 4 56 12 110 17 120 7 13 7 23 0 32 -6 7 -8 16 -5 19 8 8                                         16 53 15 86 -1 13 3 29 8 35 14 18 22 66 11 66 -5 0 -10 5 -10 10 0 6 6 10 14                                         10 11 0 13 9 9 38 -6 43 -27 67 -64 76 -24 5 -31 0 -57 -42z m-325 -449 c-3                                         -10 -5 -2 -5 17 0 19 2 27 5 18 2 -10 2 -26 0 -35z" />
    <path
      d="M4902 1292 c-6 -5 -20 -44 -29 -88 -9 -43 -22 -85 -29 -93 -18 -19 -156 -29 -152 -10 5 22 -39 23 -51 1 -9 -16 -26 -20 -123 -26 -62 -4 -130 -11                                         -151 -15 -34 -8 -39 -7 -47 14 -10 26 -29 35 -75 35 -36 0 -65 -28 -65 -62 0                                         -11 -8 -18 -20 -18 -17 0 -20 -6 -19 -42 1 -29 -13 -82 -44 -164 -25 -66 -48                                         -138 -51 -158 -3 -21 -10 -45 -15 -54 -20 -40 -63 -232 -65 -289 -1 -83 14                                         -100 53 -56 15 17 36 50 46 72 10 23 21 41 26 41 4 0 10 13 14 29 3 16 19 50                                         36 75 16 26 29 51 29 55 0 5 6 11 14 14 7 3 17 18 20 34 4 15 26 60 48 98 36                                         63 49 105 74 240 2 14 16 24 44 32 l41 10 -6 -31 c-4 -17 -19 -85 -35 -151                                         -52 -215 -102 -556 -82 -563 6 -2 12 -15 12 -28 0 -20 5 -24 28 -24 31 0 32 1                                         36 80 2 30 11 77 20 103 9 26 16 56 16 66 0 30 41 151 50 146 5 -3 19 -1 33 4                                         l24 9 -14 -41 c-24 -69 -38 -190 -27 -228 9 -29 14 -34 39 -32 52 4 68 39 117                                         248 l23 100 50 27 c27 15 51 26 52 24 1 -1 -5 -24 -13 -51 -9 -28 -20 -66 -24                                         -85 -53 -232 -57 -269 -44 -353 8 -43 23 -44 37 -3 7 20 6 30 -3 36 -9 6 -6                                         10 9 15 14 4 20 12 17 21 -3 7 -1 16 4 19 6 4 10 15 10 25 0 13 5 17 15 14 18                                         -7 20 12 3 20 -10 5 -10 7 0 12 6 3 10 10 6 15 -8 13 15 79 27 79 6 0 7 5 4                                         10 -3 6 12 65 35 133 58 172 60 180 64 223 3 22 7 48 10 59 3 11 11 40 17 65                                         6 25 27 83 45 130 36 90 40 105 24 95 -5 -3 -10 -1 -10 4 0 6 5 11 10 11 18 0                                         12 85 -7 103 -23 20 -64 30 -81 19z m-62 -245 c0 -17 -52 -232 -58 -244 -8                                         -13 -101 -57 -108 -50 -1 1 8 43 21 92 13 50 27 111 30 138 6 41 11 48 33 53                                         15 3 32 7 37 9 14 5 45 6 45 2z m-226 -69 c-8 -52 -14 -62 -14 -24 0 17 -9 35                                         -22 47 l-23 18 33 1 32 0 -6 -42z m-28 -130 c-8 -34 -20 -90 -27 -123 -6 -33                                         -18 -68 -26 -77 -21 -23 -83 -60 -83 -48 0 4 5 10 10 12 6 2 15 28 21 58 5 30                                         13 68 16 83 3 16 20 43 38 61 18 18 38 49 45 70 19 58 23 35 6 -36z" />
    <path
      d="M467 1068 c-109 -105 -136 -152 -137 -236 0 -73 58 -177 159 -287 41 -45 61 -106 41 -130 -7 -8 -71 -51 -143 -96 -73 -46 -163 -108 -202 -139 -38                                         -31 -84 -67 -102 -79 -23 -16 -30 -27 -25 -39 6 -16 7 -16 10 1 2 12 9 16 19                                         13 14 -6 56 19 98 57 11 10 28 16 38 13 10 -2 30 6 45 18 15 13 47 32 72 44                                         74 34 171 77 243 107 38 16 77 40 88 53 48 61 6 177 -98 271 -90 81 -133 144                                         -133 195 0 37 6 46 91 129 69 67 94 86 100 76 16 -25 9 -53 -36 -146 -25 -50                                         -45 -101 -45 -113 0 -26 23 -35 63 -23 38 10 87 90 108 174 7 30 20 59 29 66                                         13 11 13 12 -2 13 -11 0 -18 8 -18 21 0 34 -29 73 -75 102 -66 42 -79 38 -188                                         -65z" />
    <path
      d="M2340 270 c0 -5 5 -10 10 -10 6 0 10 5 10 10 0 6 -4 10 -10 10 -5 0 -10 -4 -10 -10z" />
    <path
      d="M2360 165 c0 -8 5 -15 10 -15 6 0 10 7 10 15 0 8 -4 15 -10 15 -5 0 -10 -7 -10 -15z" />
    <path
      d="M2370 120 c0 -5 5 -10 10 -10 6 0 10 5 10 10 0 6 -4 10 -10 10 -5 0 -10 -4 -10 -10z" />
    <path
      d="M2390 85 c0 -8 5 -15 10 -15 6 0 10 7 10 15 0 8 -4 15 -10 15 -5 0 -10 -7 -10 -15z" />
    <path d="M17 46 c-28 -21 -21 -39 8 -20 14 9 25 20 25 25 0 13 -12 11 -33 -5z" />
    <path
      d="M2749 41 c-31 -25 -21 -35 11 -11 14 10 22 21 19 25 -3 3 -17 -3 -30 -14z" />
  </g>
</svg>